<?xml version="1.0" encoding="UTF-8"?>
<!DOCTYPE svg PUBLIC "-//W3C//DTD SVG 1.1//EN" "http://www.w3.org/Graphics/SVG/1.1/DTD/svg11.dtd">
<svg
  xmlns="http://www.w3.org/2000/svg"
  xmlns:xlink="http://www.w3.org/1999/xlink"
  version="1.1"
  width="24"
  height="24"
  viewBox="0 0 24 24"
>
  <path
    d="m 12.847458,2.1355932 c 1.11,0 2.021245,1.3071781 2.050847,2.4067797 L 15,8.32 19.57,7.36 c 0.1,-0.02 0.21,-0.03 0.32,-0.03 0.41,0 0.79,0.17 1.06,0.44 L 22,8.83 15.42,15.41 C 15.05,15.78 14.55,16 14,16 L 4,16 C 2.8954305,16 2,15.104569 2,14 L 2,5 C 2,4.17 2.5,3.46 3.22,3.16 M 2,22 l 0,-4 12,0 0,4 z"
  />
</svg>
